<?xml version="1.0" ?><svg data-name="Layer 1" id="Layer_1" viewBox="0 0 512 512" xmlns="http://www.w3.org/2000/svg"><title/><path d="M464.34,255.59c-1.19-86.7-54.26-164.32-135.54-195.31C247,29.09,150.45,55.1,95.1,122.79,40,190.15,31.66,287.18,76.54,362.28s132.57,113.56,218.08,98.18c97.48-17.55,167.27-105.13,169.64-202.64A20.32,20.32,0,0,0,464.34,255.59ZM314,416.08c-67.8,24.31-144.8,3.05-190.53-52.58C78.37,308.64,73,228.84,109.28,168c36.11-60.43,108.4-93.57,177.79-80.29C367.74,103.19,425.3,174,426.42,255.59,425.45,326.61,381.57,391.86,314,416.08Z"/><path d="M360.16,239.22,218,157.11c-12.44-7.18-28.53,1.95-28.53,16.38V337.7c0,14.43,16.09,23.55,28.53,16.37L360.16,272c6.93-4,9.51-10.21,9.14-16.32C369.71,249.5,367.13,243.25,360.16,239.22Zm-47.5,16.37-85.32,49.27V206.33Z"/></svg>